# xmcd
#
# Track frame offsets: 
#        180
#        15243
#        35309
#        48134
#        62011
#        79505
#        94434
#        109234
#        127960
#        149685
#        163366
#        176333
#        189837
#        203587
#        218006
#        231812
#        241880
#        253642
#        269307
#        276848
#
# Disc length: 3807 seconds
#
# Revision: 0
# Processed by: cddbd v1.5.2PL0 Copyright (c) Steve Scherf et al.
# Submitted via: ExactAudioCopyFreeDBPlugin 1.0
#
DISCID=0e0edd14
DTITLE=Les Années 60 - Les Années 60
DYEAR=1990
DGENRE=Pop
TTITLE0=Michel Polnareff - La poupée qui fait non
TTITLE1=Michel Polnareff - Love me please love me
TTITLE2=Michel Polnareff - L'oiseau de nuit
TTITLE3=Michel Polnareff - L'amour avec toi
TTITLE4=Michel Polnareff - Sous quelle étoile suis-je né
TTITLE5=Salvatore Adamo - J'avas oublié que les roses sont roses
TTITLE6=Salvatore Adamo - La nuit
TTITLE7=Salvatore Adamo - C'est ma vie
TTITLE8=Salvatore Adamo - Inch Allah
TTITLE9=Salvatore Adamo - Laisse mes mains sur tes hanches
TTITLE10=Salvatore Adamo - Les filels du bord de mer
TTITLE11=Salvatore Adamo - Tombe la neige
TTITLE12=Salvatore Adamo - Une larme aux nuages
TTITLE13=Salvatore Adamo - Viens ma brune
TTITLE14=Salvatore Adamo - Vous permettez monsieur
TTITLE15=Moine, Berry - Eddie sois bon
TTITLE16=Berry - Repose Beethoven
TTITLE17=Moine - Hier encore j'avais deux amis
TTITLE18=Moine, Missir - Dactylo rock
TTITLE19=C. Moine, C. Pullen - Fou d'elle
EXTD=
EXTT0=
EXTT1=
EXTT2=
EXTT3=
EXTT4=
EXTT5=
EXTT6=
EXTT7=
EXTT8=
EXTT9=
EXTT10=
EXTT11=
EXTT12=
EXTT13=
EXTT14=
EXTT15=
EXTT16=
EXTT17=
EXTT18=
EXTT19=
PLAYORDER=
